<svg xmlns="http://www.w3.org/2000/svg" viewBox="0 0 236.48 153.07"><defs><style>.cls-1{fill:#b3b3b3;}.cls-2{fill:gray;}.cls-2,.cls-6{stroke:#000;}.cls-2,.cls-3,.cls-4,.cls-5,.cls-6{stroke-miterlimit:10;}.cls-3{fill:#e6e6e6;stroke:#ccc;}.cls-3,.cls-5{stroke-width:2px;}.cls-4{fill:#2e3192;stroke:#2e3192;}.cls-5{fill:#ccc;stroke:#b3b3b3;}.cls-6,.cls-7{fill:#4d4d4d;}.cls-6{stroke-width:3px;}</style></defs><g id="Layer_2" data-name="Layer 2"><g id="Layer_3" data-name="Layer 3"><path d="M234.47,73.84a17.59,17.59,0,0,0,1.66-11.77c-.57-3-2.44-6.72-5.46-7.6a12.93,12.93,0,0,0-1.46-9.38c-4-6-13.14-5.46-18.39-1.72l-.57-.24a10.32,10.32,0,0,0-2.11-.63A10.53,10.53,0,0,0,207,34.72c-2.51-4.2-5.89-5.61-10.66-5.85-8.67-.44-20.4,3.44-23.14,12.66a17.45,17.45,0,0,0-6.1,1.76c-1.88,1-5.44,4.64-5.19,7.37-7.3-.36-15,3.81-20.07,8.59-6.14,5.82-15.19,17.53-12.09,26.68-9.35-.11-18,5-20.63,14.54a37.33,37.33,0,0,0,.17,17.37,23.18,23.18,0,0,0-4,1.32A19.13,19.13,0,0,0,97,125.41a1.27,1.27,0,0,0-.25.6c-5.54-.38-11.19,4.68-10.14,10.71,1.08,6.22,9.38,11.45,14.58,7.19a18.71,18.71,0,0,0,14,9.13c4.26.38,9.53-2.43,12.91-6.37a1.05,1.05,0,0,0,.3-.15c-1,.76,4.8,3.79,4.94,3.85,3.88,1.56,7.6,2.52,11.77,2,2.6-.33,5.2-2.12,7.33-4.46,8.45,7.1,21.32,2.86,27.07-6.08,4,7.44,16.18,9.79,23.38,8.16s14.61-9.71,14.39-17.41c11.07-3.55,18-23.44,12.67-33.68a17.16,17.16,0,0,0,5.45-8.47c1.11-4,.86-11.17-1.61-15.94A1.63,1.63,0,0,0,234.47,73.84Z"/><path class="cls-1" d="M228.82,95.69c-3.89,5.08-12.17,6.77-17.55,9.77a.7.7,0,0,0,.53,1.27c5.13-1.25,10.83-2.88,15.42-5.79-.1,3.84,1.4,7.72.77,11.75-1,6.54-5.47,13.63-11.18,16.9a11,11,0,0,0-1.81-3.37,1.12,1.12,0,0,0-1.88.51c-1.39,7.18-1.48,12.81-8.41,17-5.76,3.53-19.62,2.22-23.89-4.64a1.34,1.34,0,0,0-.56-1.08,8.49,8.49,0,0,1-.47-1.34.78.78,0,0,0-1.53.21,11.18,11.18,0,0,0,.12,1.31c-3.76,2.12-6.12,5.93-9.9,8.12-4.49,2.61-9.88,1.61-14.33-.53a18.5,18.5,0,0,0,3-6.2.84.84,0,0,0-1.22-.95c-5.56,3.4-6.25,10.8-14.07,10.94a18.84,18.84,0,0,1-11.2-4.16,6.82,6.82,0,0,1-.95-1,10.62,10.62,0,0,0,1.77-6.64.71.71,0,0,0-1.31-.36c-3.68,5.69-7.64,11.62-15,12.23-8.16.67-9.9-7.5-14.62-11.86a.85.85,0,0,0-1.41.83,17.31,17.31,0,0,0,.54,2c-1.18.18-2.35.54-3.6.62-2.46.15-4.53-2.09-5.32-4.23-1.76-4.78,3.59-7.49,7.42-6.9,1.76.26,3.27-2.1,1.83-3.22,1.16-2.1,5.1-3.84,7-4.6a32.34,32.34,0,0,1,3.74-.85,6.84,6.84,0,0,0,7,3.61.79.79,0,0,0,.54-1.33c-3.3-3.64-5.43-5.22-6.11-10.83a43.61,43.61,0,0,1,.55-11.47c1.66-10.47,12.33-11.13,20.4-12.56,1.72-.3,1.05-2.62-.37-2.81l-.88-.1c-.07-9.48,6.05-17.64,12.31-24.29A24.24,24.24,0,0,1,155.83,55c4.28-1.16,8.59.21,12.82-.86a.84.84,0,0,0,.2-1.51,15.09,15.09,0,0,0-4.08-1.57c0-.09.09-.19.14-.3a10,10,0,0,1,3.8-4.6c3.69-2.35,7.76.13,11.46-1.25a.68.68,0,0,0,.29-1.11,6.62,6.62,0,0,0-4.05-2.17c3.56-5.7,8.75-8.21,15.73-9.15,4.9-.67,10.11-.78,12.42,5.17a16.14,16.14,0,0,1,.64,4.69,7.88,7.88,0,0,0-5.12,2.23.88.88,0,0,0,.83,1.46c3.31-.58,5.93-1.26,9.19.18,2.33,1,4.1,3.41,6.62,3.82.58.1,1.35-.39,1.08-1.09a9,9,0,0,0-4.37-4.31c4.37-1.42,8.7-1.84,12.32,2s.3,7.84-1.68,11.26a1.41,1.41,0,0,0,1.56,2.06,5.9,5.9,0,0,0,4.2-3.15c4.45,2.81,3.83,10.58,1.82,14.81a6.66,6.66,0,0,0-4.89-1.82,1.21,1.21,0,0,0-.83,2C231.89,78.19,234.8,87.88,228.82,95.69Z"/><path d="M171.3,95.47A.88.88,0,0,0,170,94.7c-4.21,2.8-6.34,6.66-11.59,8.25-3,.91-6.15.38-9.11-.35-.48-.12-3.78-1.72-4.74-1.63,0,0,0,0,0,0l-.15-.1a.25.25,0,0,0-.35.1l-.18.25a.77.77,0,0,0,.12.93c4.53,4.4,10.85,5.08,16.74,3.54C165.15,104.47,170.88,100.45,171.3,95.47Z"/><path d="M174.23,98.58a40.25,40.25,0,0,0-3.74,4.18,17.75,17.75,0,0,1-4.63,3.73c-.62.34-.07,1.2.54.93,3.51-1.51,8-4.19,8.59-8.39A.46.46,0,0,0,174.23,98.58Z"/><path d="M179.15,81.54a.57.57,0,0,0,1,.13c2.21-4.52.5-10.32-1.41-14.66-.57-1.3-3.94-7.89-5.71-4.13a.63.63,0,0,0,1.08.64c.36-.49,2.34,3.17,2.47,3.41a23.38,23.38,0,0,1,1.82,5.34C179.16,75.33,178.68,78.46,179.15,81.54Z"/><path d="M181.89,70.42c.1.92,0,2.11.81,2.73a.59.59,0,0,0,.84,0c.76-.85.4-1.94.25-3a22.51,22.51,0,0,0-1.11-4,.71.71,0,0,0-1.36.38C181.58,67.81,181.74,69.11,181.89,70.42Z"/><path d="M200,102.27a20.58,20.58,0,0,1-7.74-7c-1.92-2.78-2.54-6.1-3.79-9.17a.63.63,0,0,0-1.21,0c-2.36,7.89,5.36,15.57,12.07,17.77A.89.89,0,0,0,200,102.27Z"/><path d="M199.7,107a13,13,0,0,0-2.58-.17,8,8,0,0,1-3.5-1.12c-.72-.43-1.32.65-.64,1.12,1.71,1.2,4.9,2.55,6.86,1.19A.57.57,0,0,0,199.7,107Z"/><path d="M215.3,60.64c3.52.85,2.8,6.36,5.08,8.49a.65.65,0,0,0,1-.13c1.14-2-.3-4.71-1.2-6.56a17.1,17.1,0,0,0-2.12-3.18c-.79-1-1.62-.84-2.77-.68S214.35,60.4,215.3,60.64Z"/><path d="M215.87,71.55A8.33,8.33,0,0,1,217.41,75c.24,1.09,0,2.34.73,3.21a.65.65,0,0,0,.82.11c1.22-.87.9-2.63.63-3.93A10.08,10.08,0,0,0,217.35,70C216.46,69,215.05,70.49,215.87,71.55Z"/><path d="M182.79,113.51c-1.38,2.79-1.51,6.19-2.2,9.22a74.08,74.08,0,0,1-3.42,10,.75.75,0,0,0,1.25.74c3.82-4.7,8.13-13.67,5.68-19.81C183.89,113.16,183.1,112.88,182.79,113.51Z"/><path d="M186.41,117.51c.21,1.83-.11,3.63,0,5.45a.39.39,0,0,0,.73.2,9.55,9.55,0,0,0,.57-5.65C187.62,116.67,186.31,116.65,186.41,117.51Z"/><path d="M223.53,88.54c0-.28-.29-.61-.62-.47-1.5.62-2.25,2.12-3.31,3.3a18.77,18.77,0,0,1-4.8,3.8c-.57.3-.16,1.09.41,1a11.6,11.6,0,0,0,5.24-2.5C221.87,92.53,223.77,90.5,223.53,88.54Z"/><path d="M224.82,89.8C224,90,223.47,91,223,91.65l-1.79,2.92c-.52.85.73,1.53,1.3.77l1.85-2.49c.57-.78,1.33-1.59,1.17-2.61A.62.62,0,0,0,224.82,89.8Z"/><path d="M205.8,133.52a.38.38,0,0,0-.47-.47c-1.2.48-2.06,1.77-3,2.69l-3.3,3.44c-.55.57.32,1.45.86.87l3.29-3.45C204.11,135.68,205.36,134.75,205.8,133.52Z"/><path d="M208.3,134.09c-1.81.46-3.35,2.15-4.46,3.59-.58.75.15,2,1.06,1.4,1.61-1,3.47-2.37,4.15-4.22C209.23,134.39,208.72,134,208.3,134.09Z"/><path d="M119.26,112.22a11.89,11.89,0,0,0-.51-4.42,14.76,14.76,0,0,1,.8-7.27,1.3,1.3,0,0,0-2.36-1c-1.75,3.38-2.9,10.84,1.13,13.09A.64.64,0,0,0,119.26,112.22Z"/><path d="M123.3,112.26a.64.64,0,0,0,.79-.45,4.34,4.34,0,0,0-.48-2.75,13,13,0,0,1-.75-3.32c-.14-1.51-2.47-1.53-2.34,0C120.69,107.78,121,111.53,123.3,112.26Z"/><path d="M123.08,137.54a.74.74,0,0,0-.9-.52c-1.51.53-2.36,2.44-3.69,3.38a10.17,10.17,0,0,1-5.7,1.84c-.86,0-1.1,1.38-.21,1.57a9.78,9.78,0,0,0,6.66-1C120.91,142,123.66,139.65,123.08,137.54Z"/><path d="M124.23,140.81a4,4,0,0,0-2.78.84c-1,.57-1.91,1.16-2.84,1.8s-.32,2.21.74,1.77,2-.84,3-1.33,2-.84,2.42-1.84C124.92,141.6,124.81,140.91,124.23,140.81Z"/><path class="cls-2" d="M84.64,75.23a8.94,8.94,0,1,1-8.94-8.94A8.94,8.94,0,0,1,84.64,75.23Z"/><path class="cls-3" d="M75.57,58.38a16.91,16.91,0,1,0,16.9,16.91A16.91,16.91,0,0,0,75.57,58.38ZM83.87,62a3.39,3.39,0,1,1-3.38,3.38A3.38,3.38,0,0,1,83.87,62Zm-15.5-.68A3.39,3.39,0,1,1,65,64.65,3.38,3.38,0,0,1,68.37,61.27ZM63.44,82.84a3.39,3.39,0,1,1,3.39-3.39A3.38,3.38,0,0,1,63.44,82.84Zm12.13,8.64A3.39,3.39,0,1,1,79,88.09,3.38,3.38,0,0,1,75.57,91.48Zm.13-7.31a8.94,8.94,0,1,1,8.94-8.94A8.94,8.94,0,0,1,75.7,84.17ZM88,82.84a3.39,3.39,0,1,1,3.38-3.39A3.39,3.39,0,0,1,88,82.84Z"/><path class="cls-3" d="M75.57,33.56A42.14,42.14,0,1,0,117.71,75.7,42.14,42.14,0,0,0,75.57,33.56Zm40.18,41.21-1.83.14c0,.26,0,.52,0,.78a38.33,38.33,0,0,1-7.7,23.09l1.31,1.07a.73.73,0,0,1,0,1.16L89.73,113.92a.72.72,0,0,1-1.1-.31L88,112.07a38.71,38.71,0,0,1-24.86.06l-.63,1.61a.73.73,0,0,1-1.11.32L43.62,101.15a.73.73,0,0,1,0-1.14l1.25-1.07A38.3,38.3,0,0,1,37,75.69c0-.2,0-.4,0-.59L35.4,75a.73.73,0,0,1-.65-1l6.79-20.9a.73.73,0,0,1,1.08-.39l1.36.83a38.43,38.43,0,0,1,20.25-14.7l-.42-1.61a.72.72,0,0,1,.7-.91h22a.72.72,0,0,1,.7.9c-.1.42-.24,1-.4,1.64a38.62,38.62,0,0,1,20.14,14.64l1.59-1a.73.73,0,0,1,1.08.4l6.79,20.9A.71.71,0,0,1,115.75,74.77Z"/><path class="cls-4" d="M117.55,74.24l-6.79-20.9a.73.73,0,0,0-1.09-.39l-1.58,1L94,63a2.76,2.76,0,0,1-3.47-.4,18.86,18.86,0,0,0-5.09-3.69A2.75,2.75,0,0,1,84,55.79c1-4,3-12.27,4-16.46.16-.66.29-1.22.4-1.65a.72.72,0,0,0-.71-.89h-22a.72.72,0,0,0-.7.9l.42,1.61,4.34,16.64a2.78,2.78,0,0,1-1.4,3.15,18.91,18.91,0,0,0-4.86,3.64,2.76,2.76,0,0,1-3.45.44L45.13,54l-1.36-.84a.72.72,0,0,0-1.07.4l-6.79,20.9a.73.73,0,0,0,.65,1l1.6.09,17.71,1a2.78,2.78,0,0,1,2.56,2.32,18.57,18.57,0,0,0,1.82,5.52,2.79,2.79,0,0,1-.66,3.38L46,99.35l-1.25,1.07a.72.72,0,0,0,0,1.14l17.78,12.91a.73.73,0,0,0,1.11-.32l.62-1.6L70.73,96.1a2.76,2.76,0,0,1,3-1.71,18.47,18.47,0,0,0,3.26.28,18.75,18.75,0,0,0,2.5-.16,2.75,2.75,0,0,1,2.91,1.69l6.7,16.28.63,1.54a.72.72,0,0,0,1.1.31l17.78-12.91a.72.72,0,0,0,0-1.15l-1.3-1.08L94.23,88.39a2.78,2.78,0,0,1-.66-3.49,18.94,18.94,0,0,0,2.08-6,2.76,2.76,0,0,1,2.51-2.29l16.92-1.29,1.83-.14A.73.73,0,0,0,117.55,74.24ZM76.73,92.6a16.9,16.9,0,1,1,16.9-16.9A16.9,16.9,0,0,1,76.73,92.6Z"/><path class="cls-3" d="M75.57,25.83a49.75,49.75,0,1,0,49.75,49.74A49.74,49.74,0,0,0,75.57,25.83Zm0,92A42.14,42.14,0,1,1,117.71,75.7,42.14,42.14,0,0,1,75.57,117.84Z"/><path class="cls-5" d="M75.57,20.46a55,55,0,1,0,55,55A55,55,0,0,0,75.57,20.46Zm0,104.86a49.75,49.75,0,1,1,49.75-49.75A49.74,49.74,0,0,1,75.57,125.32Z"/><path class="cls-6" d="M75.57,1.5a74.08,74.08,0,1,0,74.08,74.07A74.07,74.07,0,0,0,75.57,1.5Zm0,129a55,55,0,1,1,55-55A55,55,0,0,1,75.57,130.51Z"/><polygon points="9.46 96.2 7.63 102.3 4.93 100.99 8.6 95.78 9.46 96.2 9.46 96.2"/><polygon points="9.91 53.38 4.85 57.24 3.44 54.59 9.46 52.53 9.91 53.38 9.91 53.38"/><polygon points="35.45 19.01 29.08 19.15 29.49 16.18 35.58 18.05 35.45 19.01 35.45 19.01"/><polygon points="76.3 6.21 71.07 2.58 73.15 0.42 76.97 5.51 76.3 6.21 76.3 6.21"/><polygon points="116.89 19.87 114.78 13.86 117.74 13.33 117.83 19.7 116.89 19.87 116.89 19.87"/><polygon points="141.69 54.77 143.52 48.67 146.22 49.98 142.55 55.19 141.69 54.77 141.69 54.77"/><polygon points="141.24 97.59 146.3 93.73 147.71 96.38 141.69 98.44 141.24 97.59 141.24 97.59"/><polygon points="115.7 131.96 122.07 131.82 121.66 134.79 115.57 132.91 115.7 131.96 115.7 131.96"/><polygon points="74.85 144.76 80.08 148.39 78 150.55 74.18 145.46 74.85 144.76 74.85 144.76"/><polygon points="34.26 131.1 36.37 137.11 33.41 137.64 33.31 131.27 34.26 131.1 34.26 131.1"/><path class="cls-7" d="M87.26,65.33A3.39,3.39,0,1,1,83.87,62,3.39,3.39,0,0,1,87.26,65.33Z"/><path class="cls-7" d="M71.75,64.65a3.39,3.39,0,1,1-3.38-3.38A3.39,3.39,0,0,1,71.75,64.65Z"/><path class="cls-7" d="M66.83,79.45a3.39,3.39,0,1,1-3.39-3.38A3.39,3.39,0,0,1,66.83,79.45Z"/><path class="cls-7" d="M79,88.09a3.39,3.39,0,1,1-3.39-3.38A3.39,3.39,0,0,1,79,88.09Z"/><path class="cls-7" d="M91.41,79.45A3.39,3.39,0,1,1,88,76.07,3.38,3.38,0,0,1,91.41,79.45Z"/></g></g></svg>