<svg id="Layer_3" data-name="Layer 3" xmlns="http://www.w3.org/2000/svg" viewBox="0 0 151.15 151.15"><defs><style>.cls-1{fill:gray;}.cls-1,.cls-5{stroke:#000;}.cls-1,.cls-2,.cls-3,.cls-4,.cls-5{stroke-miterlimit:10;}.cls-2{fill:#e6e6e6;stroke:#ccc;}.cls-2,.cls-4{stroke-width:2px;}.cls-3{fill:#2e3192;stroke:#2e3192;}.cls-4{fill:#ccc;stroke:#b3b3b3;}.cls-5,.cls-6{fill:#4d4d4d;}.cls-5{stroke-width:3px;}</style></defs><path class="cls-1" d="M95,183.63a8.6,8.6,0,1,1-8.6-8.59A8.61,8.61,0,0,1,95,183.63Z" transform="translate(-9.67 -108.04)"/><path class="cls-2" d="M86.32,167.45a16.24,16.24,0,1,0,16.24,16.24A16.24,16.24,0,0,0,86.32,167.45Zm8,3.42A3.26,3.26,0,1,1,91,174.12,3.25,3.25,0,0,1,94.29,170.87Zm-14.89-.65a3.25,3.25,0,1,1-3.26,3.25A3.24,3.24,0,0,1,79.4,170.22ZM74.66,191a3.26,3.26,0,1,1,3.25-3.25A3.25,3.25,0,0,1,74.66,191Zm11.66,8.3A3.25,3.25,0,1,1,89.57,196,3.25,3.25,0,0,1,86.32,199.25Zm.12-7a8.6,8.6,0,1,1,8.6-8.6A8.6,8.6,0,0,1,86.44,192.23ZM98.28,191a3.26,3.26,0,1,1,3.26-3.25A3.25,3.25,0,0,1,98.28,191Z" transform="translate(-9.67 -108.04)"/><path class="cls-2" d="M85.24,141.6a42.14,42.14,0,1,0,42.13,42.14A42.14,42.14,0,0,0,85.24,141.6Zm40.18,41.21-1.83.14c0,.26,0,.51,0,.77a38.25,38.25,0,0,1-7.71,23.09l1.31,1.08a.72.72,0,0,1,0,1.15L99.39,222a.73.73,0,0,1-1.1-.32l-.63-1.54a38.65,38.65,0,0,1-24.87.07l-.63,1.61a.72.72,0,0,1-1.1.32L53.28,209.18a.73.73,0,0,1-.05-1.14L54.49,207a38.26,38.26,0,0,1-7.83-23.25c0-.19,0-.39,0-.58l-1.61-.1a.72.72,0,0,1-.64-.95l6.79-20.9a.71.71,0,0,1,1.07-.39l1.36.83a38.53,38.53,0,0,1,20.25-14.71l-.42-1.6a.73.73,0,0,1,.7-.91h22a.73.73,0,0,1,.71.89c-.11.43-.24,1-.4,1.65a38.5,38.5,0,0,1,20.13,14.64l1.59-1a.74.74,0,0,1,1.09.39l6.79,20.9A.72.72,0,0,1,125.42,182.81Z" transform="translate(-9.67 -108.04)"/><path class="cls-3" d="M127.22,182.28l-6.79-20.9a.74.74,0,0,0-1.09-.4l-1.59,1-14.12,9a2.77,2.77,0,0,1-3.47-.4A18.6,18.6,0,0,0,95.08,167a2.76,2.76,0,0,1-1.45-3.12c1-4,3-12.28,4-16.47l.4-1.64a.72.72,0,0,0-.7-.9h-22a.73.73,0,0,0-.7.91l.42,1.61L79.39,164A2.78,2.78,0,0,1,78,167.13a19,19,0,0,0-4.85,3.63,2.76,2.76,0,0,1-3.45.45L54.8,162l-1.36-.83a.74.74,0,0,0-1.08.39l-6.79,20.9a.74.74,0,0,0,.65,1l1.61.09,17.7,1a2.78,2.78,0,0,1,2.57,2.32,18.78,18.78,0,0,0,1.81,5.51,2.77,2.77,0,0,1-.66,3.39C66,198.59,59,204.49,55.65,207.39l-1.26,1.07a.73.73,0,0,0,0,1.14l17.77,12.91a.73.73,0,0,0,1.11-.32l.63-1.61,6.44-16.44a2.76,2.76,0,0,1,3.06-1.71,19.38,19.38,0,0,0,3.26.28,20.58,20.58,0,0,0,2.5-.16,2.74,2.74,0,0,1,2.9,1.68l6.71,16.29.63,1.54a.72.72,0,0,0,1.1.31l17.78-12.91a.74.74,0,0,0,0-1.16l-1.31-1.07-13.16-10.81a2.77,2.77,0,0,1-.65-3.49,19,19,0,0,0,2.08-6,2.76,2.76,0,0,1,2.51-2.28l16.91-1.3,1.84-.14A.72.72,0,0,0,127.22,182.28ZM86.4,200.64a16.91,16.91,0,1,1,16.9-16.9A16.91,16.91,0,0,1,86.4,200.64Z" transform="translate(-9.67 -108.04)"/><path class="cls-2" d="M85.24,133.86A49.75,49.75,0,1,0,135,183.61,49.75,49.75,0,0,0,85.24,133.86Zm0,92a42.14,42.14,0,1,1,42.13-42.13A42.14,42.14,0,0,1,85.24,225.87Z" transform="translate(-9.67 -108.04)"/><path class="cls-4" d="M85.24,128.5a55,55,0,1,0,55,55A55,55,0,0,0,85.24,128.5Zm0,104.86A49.75,49.75,0,1,1,135,183.61,49.75,49.75,0,0,1,85.24,233.36Z" transform="translate(-9.67 -108.04)"/><path class="cls-5" d="M85.24,109.54a74.08,74.08,0,1,0,74.08,74.07A74.07,74.07,0,0,0,85.24,109.54Zm0,129a55,55,0,1,1,55-55A55,55,0,0,1,85.24,238.54Z" transform="translate(-9.67 -108.04)"/><polygon points="9.46 96.2 7.63 102.3 4.93 100.99 8.6 95.78 9.46 96.2 9.46 96.2"/><polygon points="9.91 53.38 4.85 57.24 3.44 54.59 9.46 52.53 9.91 53.38 9.91 53.38"/><polygon points="35.45 19.01 29.08 19.15 29.49 16.18 35.58 18.05 35.45 19.01 35.45 19.01"/><polygon points="76.3 6.21 71.07 2.58 73.15 0.42 76.97 5.51 76.3 6.21 76.3 6.21"/><polygon points="116.89 19.87 114.78 13.86 117.74 13.33 117.83 19.7 116.89 19.87 116.89 19.87"/><polygon points="141.69 54.77 143.52 48.67 146.22 49.98 142.55 55.19 141.69 54.77 141.69 54.77"/><polygon points="141.24 97.59 146.3 93.73 147.71 96.38 141.69 98.44 141.24 97.59 141.24 97.59"/><polygon points="115.7 131.96 122.07 131.82 121.66 134.79 115.57 132.91 115.7 131.96 115.7 131.96"/><polygon points="74.85 144.76 80.08 148.39 78 150.55 74.18 145.46 74.85 144.76 74.85 144.76"/><polygon points="34.26 131.1 36.37 137.11 33.41 137.64 33.31 131.27 34.26 131.1 34.26 131.1"/><path class="cls-6" d="M97.55,174.12a3.26,3.26,0,1,1-3.26-3.25A3.26,3.26,0,0,1,97.55,174.12Z" transform="translate(-9.67 -108.04)"/><path class="cls-6" d="M82.64,173.47a3.25,3.25,0,1,1-3.24-3.25A3.25,3.25,0,0,1,82.64,173.47Z" transform="translate(-9.67 -108.04)"/><path class="cls-6" d="M77.91,187.7a3.25,3.25,0,1,1-3.25-3.26A3.26,3.26,0,0,1,77.91,187.7Z" transform="translate(-9.67 -108.04)"/><path class="cls-6" d="M89.57,196a3.25,3.25,0,1,1-3.25-3.25A3.25,3.25,0,0,1,89.57,196Z" transform="translate(-9.67 -108.04)"/><path class="cls-6" d="M101.54,187.7a3.25,3.25,0,1,1-3.26-3.26A3.25,3.25,0,0,1,101.54,187.7Z" transform="translate(-9.67 -108.04)"/></svg>