<svg id="Layer_3" data-name="Layer 3" xmlns="http://www.w3.org/2000/svg" viewBox="0 0 236.48 153.07"><defs><style>.cls-1{fill:#b3b3b3;}.cls-2{fill:gray;}.cls-2,.cls-6{stroke:#000;}.cls-2,.cls-3,.cls-4,.cls-5,.cls-6{stroke-miterlimit:10;}.cls-3{fill:#e6e6e6;stroke:#ccc;}.cls-3,.cls-5{stroke-width:2px;}.cls-4{fill:#2e3192;stroke:#2e3192;}.cls-5{fill:#ccc;stroke:#b3b3b3;}.cls-6,.cls-7{fill:#4d4d4d;}.cls-6{stroke-width:3px;}</style></defs><path d="M244.13,181.87a17.49,17.49,0,0,0,1.66-11.76c-.56-3-2.44-6.73-5.46-7.61a13,13,0,0,0-1.45-9.37c-4-6-13.14-5.46-18.39-1.72l-.58-.25a10.42,10.42,0,0,0-2.1-.63,10.52,10.52,0,0,0-1.19-7.77c-2.5-4.2-5.88-5.61-10.65-5.85-8.67-.45-20.4,3.44-23.14,12.65a17.76,17.76,0,0,0-6.1,1.76c-1.89,1-5.44,4.65-5.2,7.37-7.3-.35-15,3.82-20.07,8.6-6.13,5.81-15.19,17.52-12.08,26.67-9.35-.1-18,5-20.64,14.55a37.32,37.32,0,0,0,.17,17.37,22.23,22.23,0,0,0-4,1.32,19.27,19.27,0,0,0-8.28,6.24,1.45,1.45,0,0,0-.24.61c-5.55-.38-11.19,4.68-10.14,10.7,1.08,6.23,9.37,11.46,14.58,7.19a18.68,18.68,0,0,0,14,9.14c4.26.37,9.53-2.44,12.9-6.37a1,1,0,0,0,.31-.15c-1,.75,4.8,3.79,4.93,3.85,3.88,1.56,7.6,2.52,11.78,2,2.59-.32,5.19-2.12,7.33-4.45,8.44,7.09,21.32,2.86,27.06-6.08,4,7.43,16.18,9.79,23.39,8.16,7-1.59,14.61-9.72,14.39-17.41,11.07-3.56,18-23.44,12.66-33.69a17.1,17.1,0,0,0,5.46-8.46c1.1-4,.86-11.17-1.62-15.94A1.53,1.53,0,0,0,244.13,181.87Z" transform="translate(-9.67 -108.04)"/><path class="cls-1" d="M238.49,203.73c-3.89,5.08-12.17,6.77-17.55,9.76a.7.7,0,0,0,.53,1.28c5.13-1.25,10.82-2.88,15.41-5.8-.1,3.84,1.4,7.73.77,11.75-1,6.54-5.46,13.64-11.18,16.91a10.62,10.62,0,0,0-1.8-3.37,1.12,1.12,0,0,0-1.88.5c-1.4,7.19-1.49,12.82-8.41,17.06-5.77,3.52-19.62,2.22-23.89-4.64a1.37,1.37,0,0,0-.57-1.09,8.35,8.35,0,0,1-.46-1.33.79.79,0,0,0-1.54.21c0,.45.06.88.12,1.3-3.75,2.12-6.12,5.94-9.9,8.13-4.49,2.6-9.87,1.61-14.32-.53a18.36,18.36,0,0,0,3-6.2.84.84,0,0,0-1.21-.95c-5.56,3.4-6.26,10.8-14.08,10.93a18.76,18.76,0,0,1-11.19-4.15,7.36,7.36,0,0,1-1-1,10.64,10.64,0,0,0,1.77-6.64.71.71,0,0,0-1.31-.36c-3.68,5.68-7.64,11.62-15,12.22-8.16.68-9.9-7.49-14.62-11.85a.86.86,0,0,0-1.42.83,15.59,15.59,0,0,0,.55,2c-1.19.17-2.35.54-3.6.61-2.46.16-4.53-2.08-5.32-4.23-1.76-4.78,3.58-7.48,7.41-6.9,1.76.27,3.28-2.09,1.83-3.21,1.17-2.11,5.11-3.85,7-4.6a32.63,32.63,0,0,1,3.73-.85,6.85,6.85,0,0,0,7,3.61.79.79,0,0,0,.55-1.33c-3.31-3.65-5.43-5.23-6.11-10.83a43.71,43.71,0,0,1,.54-11.48c1.67-10.46,12.33-11.12,20.41-12.55,1.71-.31,1-2.62-.38-2.81l-.88-.1c-.06-9.48,6.06-17.64,12.32-24.29A24,24,0,0,1,165.5,163c4.28-1.16,8.58.21,12.82-.86a.83.83,0,0,0,.19-1.51,15.16,15.16,0,0,0-4.07-1.57l.14-.3a9.89,9.89,0,0,1,3.8-4.6c3.68-2.35,7.76.13,11.46-1.25a.69.69,0,0,0,.29-1.12,6.6,6.6,0,0,0-4.06-2.16c3.56-5.71,8.76-8.21,15.74-9.16,4.9-.66,10.11-.78,12.42,5.18a16.42,16.42,0,0,1,.64,4.68,8,8,0,0,0-5.13,2.23.88.88,0,0,0,.84,1.46c3.31-.58,5.93-1.25,9.18.19,2.34,1,4.1,3.4,6.63,3.82.58.09,1.35-.4,1.08-1.1a9.13,9.13,0,0,0-4.37-4.3c4.37-1.43,8.7-1.84,12.32,2s.29,7.83-1.68,11.26a1.41,1.41,0,0,0,1.55,2.06,5.88,5.88,0,0,0,4.2-3.15c4.46,2.81,3.84,10.58,1.83,14.81a6.66,6.66,0,0,0-4.89-1.82,1.2,1.2,0,0,0-.83,2C241.55,186.23,244.47,195.92,238.49,203.73Z" transform="translate(-9.67 -108.04)"/><path d="M181,203.51a.88.88,0,0,0-1.32-.77c-4.21,2.8-6.35,6.66-11.59,8.25-3,.91-6.16.38-9.12-.36-.48-.11-3.78-1.72-4.73-1.62l0,0-.16-.1a.26.26,0,0,0-.35.09l-.17.25a.77.77,0,0,0,.12.93c4.52,4.4,10.85,5.09,16.73,3.54C174.82,212.51,180.55,208.48,181,203.51Z" transform="translate(-9.67 -108.04)"/><path d="M183.9,206.62a41.19,41.19,0,0,0-3.74,4.17,17.67,17.67,0,0,1-4.63,3.73c-.62.35-.08,1.2.54.94,3.51-1.52,8-4.19,8.59-8.39A.46.46,0,0,0,183.9,206.62Z" transform="translate(-9.67 -108.04)"/><path d="M188.82,189.57a.56.56,0,0,0,1,.14c2.2-4.52.49-10.32-1.41-14.66-.57-1.3-3.94-7.9-5.71-4.14a.63.63,0,0,0,1.08.65c.35-.49,2.33,3.16,2.46,3.41a22.38,22.38,0,0,1,1.82,5.33C188.82,183.37,188.34,186.49,188.82,189.57Z" transform="translate(-9.67 -108.04)"/><path d="M191.55,178.45c.1.93,0,2.12.81,2.74a.61.61,0,0,0,.84,0c.77-.85.41-1.95.26-3a23.49,23.49,0,0,0-1.11-4,.71.71,0,0,0-1.36.38C191.24,175.85,191.41,177.14,191.55,178.45Z" transform="translate(-9.67 -108.04)"/><path d="M209.67,210.31a20.68,20.68,0,0,1-7.75-7c-1.92-2.78-2.53-6.1-3.79-9.18a.63.63,0,0,0-1.2,0c-2.37,7.89,5.35,15.57,12.06,17.77A.89.89,0,0,0,209.67,210.31Z" transform="translate(-9.67 -108.04)"/><path d="M209.37,215a13.12,13.12,0,0,0-2.59-.17,7.9,7.9,0,0,1-3.49-1.13c-.73-.42-1.32.66-.65,1.13,1.72,1.2,4.9,2.54,6.86,1.19A.57.57,0,0,0,209.37,215Z" transform="translate(-9.67 -108.04)"/><path d="M225,168.67c3.51.86,2.8,6.37,5.07,8.49a.64.64,0,0,0,1-.13c1.14-2-.3-4.71-1.2-6.56a16.86,16.86,0,0,0-2.12-3.17c-.78-1-1.61-.85-2.76-.68S224,168.44,225,168.67Z" transform="translate(-9.67 -108.04)"/><path d="M225.53,179.58a8.31,8.31,0,0,1,1.55,3.42c.24,1.09-.05,2.33.73,3.21a.67.67,0,0,0,.81.11c1.23-.87.91-2.63.63-3.93a9.84,9.84,0,0,0-2.23-4.31C226.12,177,224.71,178.53,225.53,179.58Z" transform="translate(-9.67 -108.04)"/><path d="M192.45,221.55c-1.37,2.79-1.5,6.19-2.19,9.22a72.64,72.64,0,0,1-3.43,10,.76.76,0,0,0,1.26.75c3.82-4.7,8.13-13.68,5.68-19.82C193.56,221.19,192.76,220.92,192.45,221.55Z" transform="translate(-9.67 -108.04)"/><path d="M196.07,225.54c.21,1.84-.11,3.63,0,5.46a.39.39,0,0,0,.73.2,9.59,9.59,0,0,0,.58-5.66C197.28,224.7,196,224.69,196.07,225.54Z" transform="translate(-9.67 -108.04)"/><path d="M233.19,196.58c0-.28-.29-.61-.61-.48-1.5.63-2.25,2.13-3.31,3.3a18.39,18.39,0,0,1-4.81,3.8c-.56.31-.15,1.09.41,1a11.58,11.58,0,0,0,5.25-2.5C231.54,200.57,233.43,198.54,233.19,196.58Z" transform="translate(-9.67 -108.04)"/><path d="M234.48,197.84c-.85.17-1.34,1.15-1.77,1.84l-1.79,2.92c-.53.86.73,1.54,1.29.77l1.85-2.49c.58-.77,1.34-1.59,1.17-2.61A.61.61,0,0,0,234.48,197.84Z" transform="translate(-9.67 -108.04)"/><path d="M215.46,241.56c.09-.26-.2-.58-.46-.47-1.2.48-2.07,1.76-3,2.69l-3.29,3.43c-.55.57.31,1.45.86.88l3.28-3.45C213.77,243.71,215,242.79,215.46,241.56Z" transform="translate(-9.67 -108.04)"/><path d="M218,242.13c-1.81.45-3.35,2.15-4.46,3.59-.58.74.14,2,1.06,1.39,1.61-1,3.46-2.36,4.15-4.22C218.89,242.43,218.38,242,218,242.13Z" transform="translate(-9.67 -108.04)"/><path d="M128.93,220.26a12.16,12.16,0,0,0-.51-4.43,14.78,14.78,0,0,1,.79-7.27,1.3,1.3,0,0,0-2.36-1c-1.74,3.38-2.89,10.84,1.14,13.1A.65.65,0,0,0,128.93,220.26Z" transform="translate(-9.67 -108.04)"/><path d="M133,220.3a.63.63,0,0,0,.78-.46,4.34,4.34,0,0,0-.48-2.75,13.34,13.34,0,0,1-.74-3.31c-.15-1.51-2.48-1.54-2.35,0C130.35,215.81,130.7,219.56,133,220.3Z" transform="translate(-9.67 -108.04)"/><path d="M132.74,245.58a.74.74,0,0,0-.9-.52c-1.51.53-2.36,2.44-3.69,3.38a10.2,10.2,0,0,1-5.7,1.84c-.86,0-1.09,1.37-.21,1.56a9.74,9.74,0,0,0,6.67-1C130.57,250,133.33,247.68,132.74,245.58Z" transform="translate(-9.67 -108.04)"/><path d="M133.9,248.84a4,4,0,0,0-2.79.85c-1,.56-1.91,1.15-2.83,1.8s-.33,2.2.73,1.77,2-.84,3-1.33,2-.84,2.42-1.85A.86.86,0,0,0,133.9,248.84Z" transform="translate(-9.67 -108.04)"/><path class="cls-2" d="M95,183.63a8.6,8.6,0,1,1-8.6-8.59A8.61,8.61,0,0,1,95,183.63Z" transform="translate(-9.67 -108.04)"/><path class="cls-3" d="M86.32,167.45a16.24,16.24,0,1,0,16.24,16.24A16.24,16.24,0,0,0,86.32,167.45Zm8,3.42A3.26,3.26,0,1,1,91,174.12,3.25,3.25,0,0,1,94.29,170.87Zm-14.89-.65a3.25,3.25,0,1,1-3.26,3.25A3.24,3.24,0,0,1,79.4,170.22ZM74.66,191a3.26,3.26,0,1,1,3.25-3.25A3.25,3.25,0,0,1,74.66,191Zm11.66,8.3A3.25,3.25,0,1,1,89.57,196,3.25,3.25,0,0,1,86.32,199.25Zm.12-7a8.6,8.6,0,1,1,8.6-8.6A8.6,8.6,0,0,1,86.44,192.23ZM98.28,191a3.26,3.26,0,1,1,3.26-3.25A3.25,3.25,0,0,1,98.28,191Z" transform="translate(-9.67 -108.04)"/><path class="cls-3" d="M85.24,141.6a42.14,42.14,0,1,0,42.13,42.14A42.14,42.14,0,0,0,85.24,141.6Zm40.18,41.21-1.83.14c0,.26,0,.51,0,.77a38.25,38.25,0,0,1-7.71,23.09l1.31,1.08a.72.72,0,0,1,0,1.15L99.39,222a.73.73,0,0,1-1.1-.32l-.63-1.54a38.65,38.65,0,0,1-24.87.07l-.63,1.61a.72.72,0,0,1-1.1.32L53.28,209.18a.73.73,0,0,1-.05-1.14L54.49,207a38.26,38.26,0,0,1-7.83-23.25c0-.19,0-.39,0-.58l-1.61-.1a.72.72,0,0,1-.64-.95l6.79-20.9a.71.71,0,0,1,1.07-.39l1.36.83a38.53,38.53,0,0,1,20.25-14.71l-.42-1.6a.73.73,0,0,1,.7-.91h22a.73.73,0,0,1,.71.89c-.11.43-.24,1-.4,1.65a38.5,38.5,0,0,1,20.13,14.64l1.59-1a.74.74,0,0,1,1.09.39l6.79,20.9A.72.72,0,0,1,125.42,182.81Z" transform="translate(-9.67 -108.04)"/><path class="cls-4" d="M127.22,182.28l-6.79-20.9a.74.74,0,0,0-1.09-.4l-1.59,1-14.12,9a2.77,2.77,0,0,1-3.47-.4A18.6,18.6,0,0,0,95.08,167a2.76,2.76,0,0,1-1.45-3.12c1-4,3-12.28,4-16.47l.4-1.64a.72.72,0,0,0-.7-.9h-22a.73.73,0,0,0-.7.91l.42,1.61L79.39,164A2.78,2.78,0,0,1,78,167.13a19,19,0,0,0-4.85,3.63,2.76,2.76,0,0,1-3.45.45L54.8,162l-1.36-.83a.74.74,0,0,0-1.08.39l-6.79,20.9a.74.74,0,0,0,.65,1l1.61.09,17.7,1a2.78,2.78,0,0,1,2.57,2.32,18.78,18.78,0,0,0,1.81,5.51,2.77,2.77,0,0,1-.66,3.39C66,198.59,59,204.49,55.65,207.39l-1.26,1.07a.73.73,0,0,0,0,1.14l17.77,12.91a.73.73,0,0,0,1.11-.32l.63-1.61,6.44-16.44a2.76,2.76,0,0,1,3.06-1.71,19.38,19.38,0,0,0,3.26.28,20.58,20.58,0,0,0,2.5-.16,2.74,2.74,0,0,1,2.9,1.68l6.71,16.29.63,1.54a.72.72,0,0,0,1.1.31l17.78-12.91a.74.74,0,0,0,0-1.16l-1.31-1.07-13.16-10.81a2.77,2.77,0,0,1-.65-3.49,19,19,0,0,0,2.08-6,2.76,2.76,0,0,1,2.51-2.28l16.91-1.3,1.84-.14A.72.72,0,0,0,127.22,182.28ZM86.4,200.64a16.91,16.91,0,1,1,16.9-16.9A16.91,16.91,0,0,1,86.4,200.64Z" transform="translate(-9.67 -108.04)"/><path class="cls-3" d="M85.24,133.86A49.75,49.75,0,1,0,135,183.61,49.75,49.75,0,0,0,85.24,133.86Zm0,92a42.14,42.14,0,1,1,42.13-42.13A42.14,42.14,0,0,1,85.24,225.87Z" transform="translate(-9.67 -108.04)"/><path class="cls-5" d="M85.24,128.5a55,55,0,1,0,55,55A55,55,0,0,0,85.24,128.5Zm0,104.86A49.75,49.75,0,1,1,135,183.61,49.75,49.75,0,0,1,85.24,233.36Z" transform="translate(-9.67 -108.04)"/><path class="cls-6" d="M85.24,109.54a74.08,74.08,0,1,0,74.08,74.07A74.07,74.07,0,0,0,85.24,109.54Zm0,129a55,55,0,1,1,55-55A55,55,0,0,1,85.24,238.54Z" transform="translate(-9.67 -108.04)"/><polygon points="9.46 96.2 7.63 102.3 4.93 100.99 8.6 95.78 9.46 96.2 9.46 96.2"/><polygon points="9.91 53.38 4.85 57.24 3.44 54.59 9.46 52.53 9.91 53.38 9.91 53.38"/><polygon points="35.45 19.01 29.08 19.15 29.49 16.18 35.58 18.05 35.45 19.01 35.45 19.01"/><polygon points="76.3 6.21 71.07 2.58 73.15 0.42 76.97 5.51 76.3 6.21 76.3 6.21"/><polygon points="116.89 19.87 114.78 13.86 117.74 13.33 117.83 19.7 116.89 19.87 116.89 19.87"/><polygon points="141.69 54.77 143.52 48.67 146.22 49.98 142.55 55.19 141.69 54.77 141.69 54.77"/><polygon points="141.24 97.59 146.3 93.73 147.71 96.38 141.69 98.44 141.24 97.59 141.24 97.59"/><polygon points="115.7 131.96 122.07 131.82 121.66 134.79 115.57 132.91 115.7 131.96 115.7 131.96"/><polygon points="74.85 144.76 80.08 148.39 78 150.55 74.18 145.46 74.85 144.76 74.85 144.76"/><polygon points="34.26 131.1 36.37 137.11 33.41 137.64 33.31 131.27 34.26 131.1 34.26 131.1"/><path class="cls-7" d="M97.55,174.12a3.26,3.26,0,1,1-3.26-3.25A3.26,3.26,0,0,1,97.55,174.12Z" transform="translate(-9.67 -108.04)"/><path class="cls-7" d="M82.64,173.47a3.25,3.25,0,1,1-3.24-3.25A3.25,3.25,0,0,1,82.64,173.47Z" transform="translate(-9.67 -108.04)"/><path class="cls-7" d="M77.91,187.7a3.25,3.25,0,1,1-3.25-3.26A3.26,3.26,0,0,1,77.91,187.7Z" transform="translate(-9.67 -108.04)"/><path class="cls-7" d="M89.57,196a3.25,3.25,0,1,1-3.25-3.25A3.25,3.25,0,0,1,89.57,196Z" transform="translate(-9.67 -108.04)"/><path class="cls-7" d="M101.54,187.7a3.25,3.25,0,1,1-3.26-3.26A3.25,3.25,0,0,1,101.54,187.7Z" transform="translate(-9.67 -108.04)"/></svg>